<svg width="242" height="194" viewBox="0 0 242 194" fill="none" xmlns="http://www.w3.org/2000/svg">
<ellipse cx="229.828" cy="80.6207" rx="12.096" ry="12.6528" transform="rotate(-180 229.828 80.6207)" fill="#F0EEEC"/>
<ellipse cx="229.828" cy="80.6207" rx="12.096" ry="12.6528" transform="rotate(-180 229.828 80.6207)" fill="#F0EEEC"/>
<ellipse cx="229.828" cy="80.6207" rx="12.096" ry="12.6528" transform="rotate(-180 229.828 80.6207)" fill="#F0EEEC"/>
<ellipse cx="193.541" cy="80.6202" rx="12.096" ry="12.6528" transform="rotate(-180 193.541 80.6202)" fill="#F0EEEC"/>
<ellipse cx="193.541" cy="80.6202" rx="12.096" ry="12.6528" transform="rotate(-180 193.541 80.6202)" fill="#F0EEEC"/>
<ellipse cx="193.541" cy="80.6202" rx="12.096" ry="12.6528" transform="rotate(-180 193.541 80.6202)" fill="#F0EEEC"/>
<ellipse cx="157.252" cy="80.6207" rx="12.096" ry="12.6528" transform="rotate(-180 157.252 80.6207)" fill="#F0EEEC"/>
<ellipse cx="157.252" cy="80.6207" rx="12.096" ry="12.6528" transform="rotate(-180 157.252 80.6207)" fill="#F0EEEC"/>
<ellipse cx="157.252" cy="80.6207" rx="12.096" ry="12.6528" transform="rotate(-180 157.252 80.6207)" fill="#F0EEEC"/>
<ellipse cx="120.963" cy="80.6207" rx="12.096" ry="12.6528" transform="rotate(-180 120.963 80.6207)" fill="#F0EEEC"/>
<ellipse cx="120.963" cy="80.6207" rx="12.096" ry="12.6528" transform="rotate(-180 120.963 80.6207)" fill="#F0EEEC"/>
<ellipse cx="120.963" cy="80.6207" rx="12.096" ry="12.6528" transform="rotate(-180 120.963 80.6207)" fill="#F0EEEC"/>
<ellipse cx="84.6755" cy="80.6202" rx="12.096" ry="12.6528" transform="rotate(-180 84.6755 80.6202)" fill="#F0EEEC"/>
<ellipse cx="84.6755" cy="80.6202" rx="12.096" ry="12.6528" transform="rotate(-180 84.6755 80.6202)" fill="#F0EEEC"/>
<ellipse cx="84.6755" cy="80.6202" rx="12.096" ry="12.6528" transform="rotate(-180 84.6755 80.6202)" fill="#F0EEEC"/>
<ellipse cx="48.3884" cy="80.6202" rx="12.096" ry="12.6528" transform="rotate(-180 48.3884 80.6202)" fill="#F0EEEC"/>
<ellipse cx="48.3884" cy="80.6202" rx="12.096" ry="12.6528" transform="rotate(-180 48.3884 80.6202)" fill="#F0EEEC"/>
<ellipse cx="48.3884" cy="80.6202" rx="12.096" ry="12.6528" transform="rotate(-180 48.3884 80.6202)" fill="#F0EEEC"/>
<ellipse cx="12.0973" cy="80.6202" rx="12.096" ry="12.6528" transform="rotate(-180 12.0973 80.6202)" fill="#F0EEEC"/>
<ellipse cx="12.0973" cy="80.6202" rx="12.096" ry="12.6528" transform="rotate(-180 12.0973 80.6202)" fill="#F0EEEC"/>
<ellipse cx="12.0973" cy="80.6202" rx="12.096" ry="12.6528" transform="rotate(-180 12.0973 80.6202)" fill="#F0EEEC"/>
<ellipse cx="229.828" cy="80.6207" rx="12.096" ry="12.6528" transform="rotate(-180 229.828 80.6207)" fill="#F0EEEC"/>
<ellipse cx="229.828" cy="80.6207" rx="12.096" ry="12.6528" transform="rotate(-180 229.828 80.6207)" fill="#F0EEEC"/>
<ellipse cx="229.828" cy="80.6207" rx="12.096" ry="12.6528" transform="rotate(-180 229.828 80.6207)" fill="#F0EEEC"/>
<ellipse cx="193.541" cy="80.6202" rx="12.096" ry="12.6528" transform="rotate(-180 193.541 80.6202)" fill="#F0EEEC"/>
<ellipse cx="193.541" cy="80.6202" rx="12.096" ry="12.6528" transform="rotate(-180 193.541 80.6202)" fill="#F0EEEC"/>
<ellipse cx="193.541" cy="80.6202" rx="12.096" ry="12.6528" transform="rotate(-180 193.541 80.6202)" fill="#F0EEEC"/>
<ellipse cx="157.252" cy="80.6207" rx="12.096" ry="12.6528" transform="rotate(-180 157.252 80.6207)" fill="#F0EEEC"/>
<ellipse cx="157.252" cy="80.6207" rx="12.096" ry="12.6528" transform="rotate(-180 157.252 80.6207)" fill="#F0EEEC"/>
<ellipse cx="157.252" cy="80.6207" rx="12.096" ry="12.6528" transform="rotate(-180 157.252 80.6207)" fill="#F0EEEC"/>
<ellipse cx="120.963" cy="80.6207" rx="12.096" ry="12.6528" transform="rotate(-180 120.963 80.6207)" fill="#F0EEEC"/>
<ellipse cx="120.963" cy="80.6207" rx="12.096" ry="12.6528" transform="rotate(-180 120.963 80.6207)" fill="#F0EEEC"/>
<ellipse cx="120.963" cy="80.6207" rx="12.096" ry="12.6528" transform="rotate(-180 120.963 80.6207)" fill="#F0EEEC"/>
<ellipse cx="84.6755" cy="80.6202" rx="12.096" ry="12.6528" transform="rotate(-180 84.6755 80.6202)" fill="#F0EEEC"/>
<ellipse cx="84.6755" cy="80.6202" rx="12.096" ry="12.6528" transform="rotate(-180 84.6755 80.6202)" fill="#F0EEEC"/>
<ellipse cx="84.6755" cy="80.6202" rx="12.096" ry="12.6528" transform="rotate(-180 84.6755 80.6202)" fill="#F0EEEC"/>
<ellipse cx="48.3884" cy="80.6202" rx="12.096" ry="12.6528" transform="rotate(-180 48.3884 80.6202)" fill="#F0EEEC"/>
<ellipse cx="48.3884" cy="80.6202" rx="12.096" ry="12.6528" transform="rotate(-180 48.3884 80.6202)" fill="#F0EEEC"/>
<ellipse cx="48.3884" cy="80.6202" rx="12.096" ry="12.6528" transform="rotate(-180 48.3884 80.6202)" fill="#F0EEEC"/>
<ellipse cx="12.0973" cy="80.6202" rx="12.096" ry="12.6528" transform="rotate(-180 12.0973 80.6202)" fill="#F0EEEC"/>
<ellipse cx="12.0973" cy="80.6202" rx="12.096" ry="12.6528" transform="rotate(-180 12.0973 80.6202)" fill="#F0EEEC"/>
<ellipse cx="12.0973" cy="80.6202" rx="12.096" ry="12.6528" transform="rotate(-180 12.0973 80.6202)" fill="#F0EEEC"/>
<ellipse cx="229.834" cy="45.8912" rx="12.096" ry="12.6528" transform="rotate(-180 229.834 45.8912)" fill="#F0EEEC"/>
<ellipse cx="229.834" cy="45.8912" rx="12.096" ry="12.6528" transform="rotate(-180 229.834 45.8912)" fill="#F0EEEC"/>
<ellipse cx="229.834" cy="45.8912" rx="12.096" ry="12.6528" transform="rotate(-180 229.834 45.8912)" fill="#F0EEEC"/>
<ellipse cx="193.547" cy="45.8907" rx="12.096" ry="12.6528" transform="rotate(-180 193.547 45.8907)" fill="#F0EEEC"/>
<ellipse cx="193.547" cy="45.8907" rx="12.096" ry="12.6528" transform="rotate(-180 193.547 45.8907)" fill="#F0EEEC"/>
<ellipse cx="193.547" cy="45.8907" rx="12.096" ry="12.6528" transform="rotate(-180 193.547 45.8907)" fill="#F0EEEC"/>
<ellipse cx="157.259" cy="45.8907" rx="12.096" ry="12.6528" transform="rotate(-180 157.259 45.8907)" fill="#F0EEEC"/>
<ellipse cx="157.259" cy="45.8907" rx="12.096" ry="12.6528" transform="rotate(-180 157.259 45.8907)" fill="#F0EEEC"/>
<ellipse cx="157.259" cy="45.8907" rx="12.096" ry="12.6528" transform="rotate(-180 157.259 45.8907)" fill="#F0EEEC"/>
<ellipse cx="120.968" cy="45.8912" rx="12.096" ry="12.6528" transform="rotate(-180 120.968 45.8912)" fill="#F0EEEC"/>
<ellipse cx="120.968" cy="45.8912" rx="12.096" ry="12.6528" transform="rotate(-180 120.968 45.8912)" fill="#F0EEEC"/>
<ellipse cx="120.968" cy="45.8912" rx="12.096" ry="12.6528" transform="rotate(-180 120.968 45.8912)" fill="#F0EEEC"/>
<ellipse cx="84.6813" cy="45.8907" rx="12.096" ry="12.6528" transform="rotate(-180 84.6813 45.8907)" fill="#F0EEEC"/>
<ellipse cx="84.6813" cy="45.8907" rx="12.096" ry="12.6528" transform="rotate(-180 84.6813 45.8907)" fill="#F0EEEC"/>
<ellipse cx="84.6813" cy="45.8907" rx="12.096" ry="12.6528" transform="rotate(-180 84.6813 45.8907)" fill="#F0EEEC"/>
<ellipse cx="48.3942" cy="45.8907" rx="12.096" ry="12.6528" transform="rotate(-180 48.3942 45.8907)" fill="#F0EEEC"/>
<ellipse cx="48.3942" cy="45.8907" rx="12.096" ry="12.6528" transform="rotate(-180 48.3942 45.8907)" fill="#F0EEEC"/>
<ellipse cx="48.3942" cy="45.8907" rx="12.096" ry="12.6528" transform="rotate(-180 48.3942 45.8907)" fill="#F0EEEC"/>
<ellipse cx="12.1032" cy="45.8907" rx="12.096" ry="12.6528" transform="rotate(-180 12.1032 45.8907)" fill="#F0EEEC"/>
<ellipse cx="12.1032" cy="45.8907" rx="12.096" ry="12.6528" transform="rotate(-180 12.1032 45.8907)" fill="#F0EEEC"/>
<ellipse cx="12.1032" cy="45.8907" rx="12.096" ry="12.6528" transform="rotate(-180 12.1032 45.8907)" fill="#F0EEEC"/>
<ellipse cx="229.834" cy="45.8912" rx="12.096" ry="12.6528" transform="rotate(-180 229.834 45.8912)" fill="#F0EEEC"/>
<ellipse cx="229.834" cy="45.8912" rx="12.096" ry="12.6528" transform="rotate(-180 229.834 45.8912)" fill="#F0EEEC"/>
<ellipse cx="229.834" cy="45.8912" rx="12.096" ry="12.6528" transform="rotate(-180 229.834 45.8912)" fill="#F0EEEC"/>
<ellipse cx="193.547" cy="45.8907" rx="12.096" ry="12.6528" transform="rotate(-180 193.547 45.8907)" fill="#F0EEEC"/>
<ellipse cx="193.547" cy="45.8907" rx="12.096" ry="12.6528" transform="rotate(-180 193.547 45.8907)" fill="#F0EEEC"/>
<ellipse cx="193.547" cy="45.8907" rx="12.096" ry="12.6528" transform="rotate(-180 193.547 45.8907)" fill="#F0EEEC"/>
<ellipse cx="157.259" cy="45.8907" rx="12.096" ry="12.6528" transform="rotate(-180 157.259 45.8907)" fill="#F0EEEC"/>
<ellipse cx="157.259" cy="45.8907" rx="12.096" ry="12.6528" transform="rotate(-180 157.259 45.8907)" fill="#F0EEEC"/>
<ellipse cx="157.259" cy="45.8907" rx="12.096" ry="12.6528" transform="rotate(-180 157.259 45.8907)" fill="#F0EEEC"/>
<ellipse cx="120.968" cy="45.8912" rx="12.096" ry="12.6528" transform="rotate(-180 120.968 45.8912)" fill="#F0EEEC"/>
<ellipse cx="120.968" cy="45.8912" rx="12.096" ry="12.6528" transform="rotate(-180 120.968 45.8912)" fill="#F0EEEC"/>
<ellipse cx="120.968" cy="45.8912" rx="12.096" ry="12.6528" transform="rotate(-180 120.968 45.8912)" fill="#F0EEEC"/>
<ellipse cx="84.6813" cy="45.8907" rx="12.096" ry="12.6528" transform="rotate(-180 84.6813 45.8907)" fill="#F0EEEC"/>
<ellipse cx="84.6813" cy="45.8907" rx="12.096" ry="12.6528" transform="rotate(-180 84.6813 45.8907)" fill="#F0EEEC"/>
<ellipse cx="84.6813" cy="45.8907" rx="12.096" ry="12.6528" transform="rotate(-180 84.6813 45.8907)" fill="#F0EEEC"/>
<ellipse cx="48.3942" cy="45.8907" rx="12.096" ry="12.6528" transform="rotate(-180 48.3942 45.8907)" fill="#F0EEEC"/>
<ellipse cx="48.3942" cy="45.8907" rx="12.096" ry="12.6528" transform="rotate(-180 48.3942 45.8907)" fill="#F0EEEC"/>
<ellipse cx="48.3942" cy="45.8907" rx="12.096" ry="12.6528" transform="rotate(-180 48.3942 45.8907)" fill="#F0EEEC"/>
<ellipse cx="12.1032" cy="45.8907" rx="12.096" ry="12.6528" transform="rotate(-180 12.1032 45.8907)" fill="#F0EEEC"/>
<ellipse cx="12.1032" cy="45.8907" rx="12.096" ry="12.6528" transform="rotate(-180 12.1032 45.8907)" fill="#F0EEEC"/>
<ellipse cx="12.1032" cy="45.8907" rx="12.096" ry="12.6528" transform="rotate(-180 12.1032 45.8907)" fill="#F0EEEC"/>
<ellipse cx="229.828" cy="114.613" rx="12.096" ry="12.6528" transform="rotate(-180 229.828 114.613)" fill="#F0EEEC"/>
<ellipse cx="229.828" cy="114.613" rx="12.096" ry="12.6528" transform="rotate(-180 229.828 114.613)" fill="#F0EEEC"/>
<ellipse cx="229.828" cy="114.613" rx="12.096" ry="12.6528" transform="rotate(-180 229.828 114.613)" fill="#F0EEEC"/>
<ellipse cx="193.541" cy="114.613" rx="12.096" ry="12.6528" transform="rotate(-180 193.541 114.613)" fill="#F0EEEC"/>
<ellipse cx="193.541" cy="114.613" rx="12.096" ry="12.6528" transform="rotate(-180 193.541 114.613)" fill="#F0EEEC"/>
<ellipse cx="193.541" cy="114.613" rx="12.096" ry="12.6528" transform="rotate(-180 193.541 114.613)" fill="#F0EEEC"/>
<ellipse cx="157.254" cy="114.612" rx="12.096" ry="12.6528" transform="rotate(-180 157.254 114.612)" fill="#F0EEEC"/>
<ellipse cx="157.254" cy="114.612" rx="12.096" ry="12.6528" transform="rotate(-180 157.254 114.612)" fill="#F0EEEC"/>
<ellipse cx="157.254" cy="114.612" rx="12.096" ry="12.6528" transform="rotate(-180 157.254 114.612)" fill="#F0EEEC"/>
<ellipse cx="120.963" cy="114.613" rx="12.096" ry="12.6528" transform="rotate(-180 120.963 114.613)" fill="#F0EEEC"/>
<ellipse cx="120.963" cy="114.613" rx="12.096" ry="12.6528" transform="rotate(-180 120.963 114.613)" fill="#F0EEEC"/>
<ellipse cx="120.963" cy="114.613" rx="12.096" ry="12.6528" transform="rotate(-180 120.963 114.613)" fill="#F0EEEC"/>
<ellipse cx="84.6755" cy="114.612" rx="12.096" ry="12.6528" transform="rotate(-180 84.6755 114.612)" fill="#F0EEEC"/>
<ellipse cx="84.6755" cy="114.612" rx="12.096" ry="12.6528" transform="rotate(-180 84.6755 114.612)" fill="#F0EEEC"/>
<ellipse cx="84.6755" cy="114.612" rx="12.096" ry="12.6528" transform="rotate(-180 84.6755 114.612)" fill="#F0EEEC"/>
<ellipse cx="48.3884" cy="114.612" rx="12.096" ry="12.6528" transform="rotate(-180 48.3884 114.612)" fill="#F0EEEC"/>
<ellipse cx="48.3884" cy="114.612" rx="12.096" ry="12.6528" transform="rotate(-180 48.3884 114.612)" fill="#F0EEEC"/>
<ellipse cx="48.3884" cy="114.612" rx="12.096" ry="12.6528" transform="rotate(-180 48.3884 114.612)" fill="#F0EEEC"/>
<ellipse cx="12.0973" cy="114.612" rx="12.096" ry="12.6528" transform="rotate(-180 12.0973 114.612)" fill="#F0EEEC"/>
<ellipse cx="12.0973" cy="114.612" rx="12.096" ry="12.6528" transform="rotate(-180 12.0973 114.612)" fill="#F0EEEC"/>
<ellipse cx="12.0973" cy="114.612" rx="12.096" ry="12.6528" transform="rotate(-180 12.0973 114.612)" fill="#F0EEEC"/>
<ellipse cx="229.828" cy="114.613" rx="12.096" ry="12.6528" transform="rotate(-180 229.828 114.613)" fill="#F0EEEC"/>
<ellipse cx="229.828" cy="114.613" rx="12.096" ry="12.6528" transform="rotate(-180 229.828 114.613)" fill="#F0EEEC"/>
<ellipse cx="229.828" cy="114.613" rx="12.096" ry="12.6528" transform="rotate(-180 229.828 114.613)" fill="#F0EEEC"/>
<ellipse cx="193.541" cy="114.613" rx="12.096" ry="12.6528" transform="rotate(-180 193.541 114.613)" fill="#F0EEEC"/>
<ellipse cx="193.541" cy="114.613" rx="12.096" ry="12.6528" transform="rotate(-180 193.541 114.613)" fill="#F0EEEC"/>
<ellipse cx="193.541" cy="114.613" rx="12.096" ry="12.6528" transform="rotate(-180 193.541 114.613)" fill="#F0EEEC"/>
<ellipse cx="157.254" cy="114.612" rx="12.096" ry="12.6528" transform="rotate(-180 157.254 114.612)" fill="#F0EEEC"/>
<ellipse cx="157.254" cy="114.612" rx="12.096" ry="12.6528" transform="rotate(-180 157.254 114.612)" fill="#F0EEEC"/>
<ellipse cx="157.254" cy="114.612" rx="12.096" ry="12.6528" transform="rotate(-180 157.254 114.612)" fill="#F0EEEC"/>
<ellipse cx="120.963" cy="114.613" rx="12.096" ry="12.6528" transform="rotate(-180 120.963 114.613)" fill="#F0EEEC"/>
<ellipse cx="120.963" cy="114.613" rx="12.096" ry="12.6528" transform="rotate(-180 120.963 114.613)" fill="#F0EEEC"/>
<ellipse cx="120.963" cy="114.613" rx="12.096" ry="12.6528" transform="rotate(-180 120.963 114.613)" fill="#F0EEEC"/>
<ellipse cx="84.6755" cy="114.612" rx="12.096" ry="12.6528" transform="rotate(-180 84.6755 114.612)" fill="#F0EEEC"/>
<ellipse cx="84.6755" cy="114.612" rx="12.096" ry="12.6528" transform="rotate(-180 84.6755 114.612)" fill="#F0EEEC"/>
<ellipse cx="84.6755" cy="114.612" rx="12.096" ry="12.6528" transform="rotate(-180 84.6755 114.612)" fill="#F0EEEC"/>
<ellipse cx="48.3884" cy="114.612" rx="12.096" ry="12.6528" transform="rotate(-180 48.3884 114.612)" fill="#F0EEEC"/>
<ellipse cx="48.3884" cy="114.612" rx="12.096" ry="12.6528" transform="rotate(-180 48.3884 114.612)" fill="#F0EEEC"/>
<ellipse cx="48.3884" cy="114.612" rx="12.096" ry="12.6528" transform="rotate(-180 48.3884 114.612)" fill="#F0EEEC"/>
<ellipse cx="12.0973" cy="114.612" rx="12.096" ry="12.6528" transform="rotate(-180 12.0973 114.612)" fill="#F0EEEC"/>
<ellipse cx="12.0973" cy="114.612" rx="12.096" ry="12.6528" transform="rotate(-180 12.0973 114.612)" fill="#F0EEEC"/>
<ellipse cx="12.0973" cy="114.612" rx="12.096" ry="12.6528" transform="rotate(-180 12.0973 114.612)" fill="#F0EEEC"/>
<ellipse cx="229.828" cy="148.352" rx="12.096" ry="12.6528" transform="rotate(-180 229.828 148.352)" fill="#F0EEEC"/>
<ellipse cx="229.828" cy="148.352" rx="12.096" ry="12.6528" transform="rotate(-180 229.828 148.352)" fill="#F0EEEC"/>
<ellipse cx="229.828" cy="148.352" rx="12.096" ry="12.6528" transform="rotate(-180 229.828 148.352)" fill="#F0EEEC"/>
<ellipse cx="193.541" cy="148.352" rx="12.096" ry="12.6528" transform="rotate(-180 193.541 148.352)" fill="#F0EEEC"/>
<ellipse cx="193.541" cy="148.352" rx="12.096" ry="12.6528" transform="rotate(-180 193.541 148.352)" fill="#F0EEEC"/>
<ellipse cx="193.541" cy="148.352" rx="12.096" ry="12.6528" transform="rotate(-180 193.541 148.352)" fill="#F0EEEC"/>
<ellipse cx="157.254" cy="148.352" rx="12.096" ry="12.6528" transform="rotate(-180 157.254 148.352)" fill="#F0EEEC"/>
<ellipse cx="157.254" cy="148.352" rx="12.096" ry="12.6528" transform="rotate(-180 157.254 148.352)" fill="#F0EEEC"/>
<ellipse cx="157.254" cy="148.352" rx="12.096" ry="12.6528" transform="rotate(-180 157.254 148.352)" fill="#F0EEEC"/>
<ellipse cx="120.963" cy="148.352" rx="12.096" ry="12.6528" transform="rotate(-180 120.963 148.352)" fill="#F0EEEC"/>
<ellipse cx="120.963" cy="148.352" rx="12.096" ry="12.6528" transform="rotate(-180 120.963 148.352)" fill="#F0EEEC"/>
<ellipse cx="120.963" cy="148.352" rx="12.096" ry="12.6528" transform="rotate(-180 120.963 148.352)" fill="#F0EEEC"/>
<ellipse cx="84.6755" cy="148.352" rx="12.096" ry="12.6528" transform="rotate(-180 84.6755 148.352)" fill="#F0EEEC"/>
<ellipse cx="84.6755" cy="148.352" rx="12.096" ry="12.6528" transform="rotate(-180 84.6755 148.352)" fill="#F0EEEC"/>
<ellipse cx="84.6755" cy="148.352" rx="12.096" ry="12.6528" transform="rotate(-180 84.6755 148.352)" fill="#F0EEEC"/>
<ellipse cx="48.3884" cy="148.352" rx="12.096" ry="12.6528" transform="rotate(-180 48.3884 148.352)" fill="#F0EEEC"/>
<ellipse cx="48.3884" cy="148.352" rx="12.096" ry="12.6528" transform="rotate(-180 48.3884 148.352)" fill="#F0EEEC"/>
<ellipse cx="48.3884" cy="148.352" rx="12.096" ry="12.6528" transform="rotate(-180 48.3884 148.352)" fill="#F0EEEC"/>
<ellipse cx="12.0973" cy="148.352" rx="12.096" ry="12.6528" transform="rotate(-180 12.0973 148.352)" fill="#F0EEEC"/>
<ellipse cx="12.0973" cy="148.352" rx="12.096" ry="12.6528" transform="rotate(-180 12.0973 148.352)" fill="#F0EEEC"/>
<ellipse cx="12.0973" cy="148.352" rx="12.096" ry="12.6528" transform="rotate(-180 12.0973 148.352)" fill="#F0EEEC"/>
<ellipse cx="229.828" cy="148.352" rx="12.096" ry="12.6528" transform="rotate(-180 229.828 148.352)" fill="#F0EEEC"/>
<ellipse cx="229.828" cy="148.352" rx="12.096" ry="12.6528" transform="rotate(-180 229.828 148.352)" fill="#F0EEEC"/>
<ellipse cx="229.828" cy="148.352" rx="12.096" ry="12.6528" transform="rotate(-180 229.828 148.352)" fill="#F0EEEC"/>
<ellipse cx="193.541" cy="148.352" rx="12.096" ry="12.6528" transform="rotate(-180 193.541 148.352)" fill="#F0EEEC"/>
<ellipse cx="193.541" cy="148.352" rx="12.096" ry="12.6528" transform="rotate(-180 193.541 148.352)" fill="#F0EEEC"/>
<ellipse cx="193.541" cy="148.352" rx="12.096" ry="12.6528" transform="rotate(-180 193.541 148.352)" fill="#F0EEEC"/>
<ellipse cx="157.254" cy="148.352" rx="12.096" ry="12.6528" transform="rotate(-180 157.254 148.352)" fill="#F0EEEC"/>
<ellipse cx="157.254" cy="148.352" rx="12.096" ry="12.6528" transform="rotate(-180 157.254 148.352)" fill="#F0EEEC"/>
<ellipse cx="157.254" cy="148.352" rx="12.096" ry="12.6528" transform="rotate(-180 157.254 148.352)" fill="#F0EEEC"/>
<ellipse cx="120.963" cy="148.352" rx="12.096" ry="12.6528" transform="rotate(-180 120.963 148.352)" fill="#F0EEEC"/>
<ellipse cx="120.963" cy="148.352" rx="12.096" ry="12.6528" transform="rotate(-180 120.963 148.352)" fill="#F0EEEC"/>
<ellipse cx="120.963" cy="148.352" rx="12.096" ry="12.6528" transform="rotate(-180 120.963 148.352)" fill="#F0EEEC"/>
<ellipse cx="84.6755" cy="148.352" rx="12.096" ry="12.6528" transform="rotate(-180 84.6755 148.352)" fill="#F0EEEC"/>
<ellipse cx="84.6755" cy="148.352" rx="12.096" ry="12.6528" transform="rotate(-180 84.6755 148.352)" fill="#F0EEEC"/>
<ellipse cx="84.6755" cy="148.352" rx="12.096" ry="12.6528" transform="rotate(-180 84.6755 148.352)" fill="#F0EEEC"/>
<ellipse cx="48.3884" cy="148.352" rx="12.096" ry="12.6528" transform="rotate(-180 48.3884 148.352)" fill="#F0EEEC"/>
<ellipse cx="48.3884" cy="148.352" rx="12.096" ry="12.6528" transform="rotate(-180 48.3884 148.352)" fill="#F0EEEC"/>
<ellipse cx="48.3884" cy="148.352" rx="12.096" ry="12.6528" transform="rotate(-180 48.3884 148.352)" fill="#F0EEEC"/>
<ellipse cx="12.0973" cy="148.352" rx="12.096" ry="12.6528" transform="rotate(-180 12.0973 148.352)" fill="#F0EEEC"/>
<ellipse cx="12.0973" cy="148.352" rx="12.096" ry="12.6528" transform="rotate(-180 12.0973 148.352)" fill="#F0EEEC"/>
<ellipse cx="12.0973" cy="148.352" rx="12.096" ry="12.6528" transform="rotate(-180 12.0973 148.352)" fill="#F0EEEC"/>
<ellipse cx="193.539" cy="181.348" rx="12.096" ry="12.6528" transform="rotate(-180 193.539 181.348)" fill="#F0EEEC"/>
<ellipse cx="193.539" cy="181.348" rx="12.096" ry="12.6528" transform="rotate(-180 193.539 181.348)" fill="#F0EEEC"/>
<ellipse cx="193.539" cy="181.348" rx="12.096" ry="12.6528" transform="rotate(-180 193.539 181.348)" fill="#F0EEEC"/>
<ellipse cx="157.252" cy="181.348" rx="12.096" ry="12.6528" transform="rotate(-180 157.252 181.348)" fill="#F0EEEC"/>
<ellipse cx="157.252" cy="181.348" rx="12.096" ry="12.6528" transform="rotate(-180 157.252 181.348)" fill="#F0EEEC"/>
<ellipse cx="157.252" cy="181.348" rx="12.096" ry="12.6528" transform="rotate(-180 157.252 181.348)" fill="#F0EEEC"/>
<ellipse cx="120.965" cy="181.348" rx="12.096" ry="12.6528" transform="rotate(-180 120.965 181.348)" fill="#F0EEEC"/>
<ellipse cx="120.965" cy="181.348" rx="12.096" ry="12.6528" transform="rotate(-180 120.965 181.348)" fill="#F0EEEC"/>
<ellipse cx="120.965" cy="181.348" rx="12.096" ry="12.6528" transform="rotate(-180 120.965 181.348)" fill="#F0EEEC"/>
<ellipse cx="84.6774" cy="181.348" rx="12.096" ry="12.6528" transform="rotate(-180 84.6774 181.348)" fill="#F0EEEC"/>
<ellipse cx="84.6774" cy="181.348" rx="12.096" ry="12.6528" transform="rotate(-180 84.6774 181.348)" fill="#F0EEEC"/>
<ellipse cx="84.6774" cy="181.348" rx="12.096" ry="12.6528" transform="rotate(-180 84.6774 181.348)" fill="#F0EEEC"/>
<ellipse cx="48.3864" cy="181.348" rx="12.096" ry="12.6528" transform="rotate(-180 48.3864 181.348)" fill="#F0EEEC"/>
<ellipse cx="48.3864" cy="181.348" rx="12.096" ry="12.6528" transform="rotate(-180 48.3864 181.348)" fill="#F0EEEC"/>
<ellipse cx="48.3864" cy="181.348" rx="12.096" ry="12.6528" transform="rotate(-180 48.3864 181.348)" fill="#F0EEEC"/>
<ellipse cx="12.0993" cy="181.348" rx="12.096" ry="12.6528" transform="rotate(-180 12.0993 181.348)" fill="#F0EEEC"/>
<ellipse cx="12.0993" cy="181.348" rx="12.096" ry="12.6528" transform="rotate(-180 12.0993 181.348)" fill="#F0EEEC"/>
<ellipse cx="12.0993" cy="181.348" rx="12.096" ry="12.6528" transform="rotate(-180 12.0993 181.348)" fill="#F0EEEC"/>
<ellipse cx="193.539" cy="181.348" rx="12.096" ry="12.6528" transform="rotate(-180 193.539 181.348)" fill="#F0EEEC"/>
<ellipse cx="193.539" cy="181.348" rx="12.096" ry="12.6528" transform="rotate(-180 193.539 181.348)" fill="#F0EEEC"/>
<ellipse cx="193.539" cy="181.348" rx="12.096" ry="12.6528" transform="rotate(-180 193.539 181.348)" fill="#F0EEEC"/>
<ellipse cx="157.252" cy="181.348" rx="12.096" ry="12.6528" transform="rotate(-180 157.252 181.348)" fill="#F0EEEC"/>
<ellipse cx="157.252" cy="181.348" rx="12.096" ry="12.6528" transform="rotate(-180 157.252 181.348)" fill="#F0EEEC"/>
<ellipse cx="157.252" cy="181.348" rx="12.096" ry="12.6528" transform="rotate(-180 157.252 181.348)" fill="#F0EEEC"/>
<ellipse cx="120.965" cy="181.348" rx="12.096" ry="12.6528" transform="rotate(-180 120.965 181.348)" fill="#F0EEEC"/>
<ellipse cx="120.965" cy="181.348" rx="12.096" ry="12.6528" transform="rotate(-180 120.965 181.348)" fill="#F0EEEC"/>
<ellipse cx="120.965" cy="181.348" rx="12.096" ry="12.6528" transform="rotate(-180 120.965 181.348)" fill="#F0EEEC"/>
<ellipse cx="84.6774" cy="181.348" rx="12.096" ry="12.6528" transform="rotate(-180 84.6774 181.348)" fill="#F0EEEC"/>
<ellipse cx="84.6774" cy="181.348" rx="12.096" ry="12.6528" transform="rotate(-180 84.6774 181.348)" fill="#F0EEEC"/>
<ellipse cx="84.6774" cy="181.348" rx="12.096" ry="12.6528" transform="rotate(-180 84.6774 181.348)" fill="#F0EEEC"/>
<ellipse cx="48.3864" cy="181.348" rx="12.096" ry="12.6528" transform="rotate(-180 48.3864 181.348)" fill="#F0EEEC"/>
<ellipse cx="48.3864" cy="181.348" rx="12.096" ry="12.6528" transform="rotate(-180 48.3864 181.348)" fill="#F0EEEC"/>
<ellipse cx="48.3864" cy="181.348" rx="12.096" ry="12.6528" transform="rotate(-180 48.3864 181.348)" fill="#F0EEEC"/>
<ellipse cx="12.0993" cy="181.348" rx="12.096" ry="12.6528" transform="rotate(-180 12.0993 181.348)" fill="#F0EEEC"/>
<ellipse cx="12.0993" cy="181.348" rx="12.096" ry="12.6528" transform="rotate(-180 12.0993 181.348)" fill="#F0EEEC"/>
<ellipse cx="12.0993" cy="181.348" rx="12.096" ry="12.6528" transform="rotate(-180 12.0993 181.348)" fill="#F0EEEC"/>
<ellipse cx="195.787" cy="12.6529" rx="12.096" ry="12.6528" transform="rotate(-180 195.787 12.6529)" fill="#F0EEEC"/>
<ellipse cx="195.787" cy="12.6529" rx="12.096" ry="12.6528" transform="rotate(-180 195.787 12.6529)" fill="#F0EEEC"/>
<ellipse cx="195.787" cy="12.6529" rx="12.096" ry="12.6528" transform="rotate(-180 195.787 12.6529)" fill="#F0EEEC"/>
<ellipse cx="159.5" cy="12.6534" rx="12.096" ry="12.6528" transform="rotate(-180 159.5 12.6534)" fill="#F0EEEC"/>
<ellipse cx="159.5" cy="12.6534" rx="12.096" ry="12.6528" transform="rotate(-180 159.5 12.6534)" fill="#F0EEEC"/>
<ellipse cx="159.5" cy="12.6534" rx="12.096" ry="12.6528" transform="rotate(-180 159.5 12.6534)" fill="#F0EEEC"/>
<ellipse cx="123.213" cy="12.6529" rx="12.096" ry="12.6528" transform="rotate(-180 123.213 12.6529)" fill="#F0EEEC"/>
<ellipse cx="123.213" cy="12.6529" rx="12.096" ry="12.6528" transform="rotate(-180 123.213 12.6529)" fill="#F0EEEC"/>
<ellipse cx="123.213" cy="12.6529" rx="12.096" ry="12.6528" transform="rotate(-180 123.213 12.6529)" fill="#F0EEEC"/>
<ellipse cx="86.9255" cy="12.6529" rx="12.096" ry="12.6528" transform="rotate(-180 86.9255 12.6529)" fill="#F0EEEC"/>
<ellipse cx="86.9255" cy="12.6529" rx="12.096" ry="12.6528" transform="rotate(-180 86.9255 12.6529)" fill="#F0EEEC"/>
<ellipse cx="86.9255" cy="12.6529" rx="12.096" ry="12.6528" transform="rotate(-180 86.9255 12.6529)" fill="#F0EEEC"/>
<ellipse cx="50.6345" cy="12.6534" rx="12.096" ry="12.6528" transform="rotate(-180 50.6345 12.6534)" fill="#F0EEEC"/>
<ellipse cx="50.6345" cy="12.6534" rx="12.096" ry="12.6528" transform="rotate(-180 50.6345 12.6534)" fill="#F0EEEC"/>
<ellipse cx="50.6345" cy="12.6534" rx="12.096" ry="12.6528" transform="rotate(-180 50.6345 12.6534)" fill="#F0EEEC"/>
<ellipse cx="14.3473" cy="12.6529" rx="12.096" ry="12.6528" transform="rotate(-180 14.3473 12.6529)" fill="#F0EEEC"/>
<ellipse cx="14.3473" cy="12.6529" rx="12.096" ry="12.6528" transform="rotate(-180 14.3473 12.6529)" fill="#F0EEEC"/>
<ellipse cx="14.3473" cy="12.6529" rx="12.096" ry="12.6528" transform="rotate(-180 14.3473 12.6529)" fill="#F0EEEC"/>
<ellipse cx="195.787" cy="12.6529" rx="12.096" ry="12.6528" transform="rotate(-180 195.787 12.6529)" fill="#F0EEEC"/>
<ellipse cx="195.787" cy="12.6529" rx="12.096" ry="12.6528" transform="rotate(-180 195.787 12.6529)" fill="#F0EEEC"/>
<ellipse cx="195.787" cy="12.6529" rx="12.096" ry="12.6528" transform="rotate(-180 195.787 12.6529)" fill="#F0EEEC"/>
<ellipse cx="159.5" cy="12.6534" rx="12.096" ry="12.6528" transform="rotate(-180 159.5 12.6534)" fill="#F0EEEC"/>
<ellipse cx="159.5" cy="12.6534" rx="12.096" ry="12.6528" transform="rotate(-180 159.5 12.6534)" fill="#F0EEEC"/>
<ellipse cx="159.5" cy="12.6534" rx="12.096" ry="12.6528" transform="rotate(-180 159.5 12.6534)" fill="#F0EEEC"/>
<ellipse cx="123.213" cy="12.6529" rx="12.096" ry="12.6528" transform="rotate(-180 123.213 12.6529)" fill="#F0EEEC"/>
<ellipse cx="123.213" cy="12.6529" rx="12.096" ry="12.6528" transform="rotate(-180 123.213 12.6529)" fill="#F0EEEC"/>
<ellipse cx="123.213" cy="12.6529" rx="12.096" ry="12.6528" transform="rotate(-180 123.213 12.6529)" fill="#F0EEEC"/>
<ellipse cx="86.9255" cy="12.6529" rx="12.096" ry="12.6528" transform="rotate(-180 86.9255 12.6529)" fill="#F0EEEC"/>
<ellipse cx="86.9255" cy="12.6529" rx="12.096" ry="12.6528" transform="rotate(-180 86.9255 12.6529)" fill="#F0EEEC"/>
<ellipse cx="86.9255" cy="12.6529" rx="12.096" ry="12.6528" transform="rotate(-180 86.9255 12.6529)" fill="#F0EEEC"/>
<ellipse cx="50.6345" cy="12.6534" rx="12.096" ry="12.6528" transform="rotate(-180 50.6345 12.6534)" fill="#F0EEEC"/>
<ellipse cx="50.6345" cy="12.6534" rx="12.096" ry="12.6528" transform="rotate(-180 50.6345 12.6534)" fill="#F0EEEC"/>
<ellipse cx="50.6345" cy="12.6534" rx="12.096" ry="12.6528" transform="rotate(-180 50.6345 12.6534)" fill="#F0EEEC"/>
<ellipse cx="14.3473" cy="12.6529" rx="12.096" ry="12.6528" transform="rotate(-180 14.3473 12.6529)" fill="#F0EEEC"/>
<ellipse cx="14.3473" cy="12.6529" rx="12.096" ry="12.6528" transform="rotate(-180 14.3473 12.6529)" fill="#F0EEEC"/>
<ellipse cx="14.3473" cy="12.6529" rx="12.096" ry="12.6528" transform="rotate(-180 14.3473 12.6529)" fill="#F0EEEC"/>
</svg>
