<svg width="10" height="17" viewBox="0 0 10 17" fill="none" xmlns="http://www.w3.org/2000/svg">
<path d="M4.88548 8.97677C7.129 8.97677 8.94772 7.16274 8.94772 4.92503C8.94772 2.68732 7.129 0.873291 4.88548 0.873291C2.64197 0.873291 0.823242 2.68732 0.823242 4.92503C0.823242 7.16274 2.64197 8.97677 4.88548 8.97677Z" fill="#F8665D"/>
<path d="M7.60426 8.69531C6.20504 9.65197 5.25718 9.76452 4.94123 9.76452C4.94123 9.76452 4.91866 9.76452 4.88481 9.76452C4.85096 9.76452 4.82839 9.76452 4.82839 9.76452C4.51244 9.75327 3.56458 9.64072 2.16536 8.69531C2.16536 8.69531 0.258368 10.6649 0.427628 13.2535C0.596888 15.8421 3.09065 16.1798 4.88481 16.2923C6.67897 16.1798 9.17273 15.8421 9.34199 13.2535C9.51125 10.6649 7.60426 8.69531 7.60426 8.69531Z" fill="#F8665D"/>
</svg>
